<svg id="Rag--Streamline-Carbon" xmlns="http://www.w3.org/2000/svg" viewBox="0 0 16 16" height="16" width="16">
  <desc>
    RAG Streamline Icon: https://streamlinehq.com
  </desc>
  <defs></defs>
  <path d="M6 14h-1c-1.92995 0 -3.5 -1.57005 -3.5 -3.5v-1h1v1c0 1.3784 1.1216 2.5 2.5 2.5h1v1Z" stroke-width="0.5" fill="#000000"></path>
  <path d="M14 9.5h-4.5c-0.552 0.0007 -0.9993 0.448 -1 1v2.5c0 0.5523 0.4477 1 1 1h1.5v-1h-1.5v-2.5h4.5v2.5h-1.2676l-1.29685 1.9453L12.2676 15.5l1 -1.5H14c0.5523 0 1 -0.4477 1 -1v-2.5c-0.0007 -0.552 -0.448 -0.9993 -1 -1Z" stroke-width="0.5" fill="#000000"></path>
  <path d="M14.5 7.5v-2c0 -1.92995 -1.57005 -3.5 -3.5 -3.5h-1.5v1h1.5c1.3784 0 2.5 1.1216 2.5 2.5v2h1Z" stroke-width="0.5" fill="#000000"></path>
  <path d="M3 5h1.5v1H3Z" stroke-width="0.5" fill="#000000"></path>
  <path d="M6.303 3.21775 5.04045 1.375C4.8494 1.1367 4.56485 1 4.2597 1H2.00005c-0.5514 0 -1 0.44875 -1 1v5c0 0.55125 0.4486 1 1 1h3.5c0.5514 0 1 -0.44875 1 -1V3.8125c0 -0.2263 -0.0779 -0.44825 -0.197 -0.59475ZM2 7V2h2v1.5c0 0.2761 0.2239 0.5 0.5 0.5h1v3H2Z" stroke-width="0.5" fill="#000000"></path>
  <path id="_Transparent_Rectangle_" d="M0 0h16v16H0Z" stroke-width="0.5" fill="none"></path>
</svg>