<svg xmlns="http://www.w3.org/2000/svg" viewBox="0 0 16 16" fill="#000000" id="Webhooks-Logo-Light--Streamline-Phosphor" height="16" width="16">
  <desc>
    Webhooks Logo Light Streamline Icon: https://streamlinehq.com
  </desc>
  <path d="M11.6614125 12.13426875h-4.97254375c-0.329225 2.502175 -3.24368125 3.7096375 -5.24601875 2.17343125C0.017125 13.21386875 -0.2623625 11.17618125 0.8161875 9.7388625c0.19778125 -0.26334375 0.60648125 -0.21383125 0.73565625 0.08913125 0.05994375 0.14060625 0.04033125 0.3025125 -0.0514625 0.42473125 -0.316075 0.4186625 -0.4863 0.92934375 -0.4846375 1.45391875 0 1.865375 2.01933125 3.0312375 3.63479375 2.09855 0.7497375 -0.4328625 1.21159375 -1.232825 1.21159375 -2.09855 0 -0.23616875 0.19145625 -0.427625 0.427625 -0.427625h5.37165625c0.32918125 -0.69398125 1.28618125 -0.7713625 1.72259375 -0.13929375 0.4364125 0.632075 0.02493125 1.49955 -0.7406625 1.56145625 -0.4133125 0.033425 -0.80421875 -0.1922625 -0.98193125 -0.5669125ZM3.4389375 12.70443125c0.7681 -0.0008 1.2472875 -0.8327875 0.86255 -1.49758125 -0.00848125 -0.01465 -0.01733125 -0.0290875 -0.02654375 -0.0432875l2.59566875 -4.2177875c0.1231125 -0.2017125 0.059275 -0.46504375 -0.14254375 -0.58798125 -1.5875 -0.979525 -1.51931875 -3.31025 0.122725 -4.1953 1.2467375 -0.67198125 2.8015625 -0.13610625 3.36953125 1.16131875 0.1254625 0.3043375 0.53333125 0.35873125 0.7341625 0.09790625 0.0968875 -0.12581875 0.1160625 -0.294975 0.0498125 -0.43929375 -1.009075 -2.3132375 -4.14389375 -2.66665625 -5.64268125 -0.63615 -1.0405625 1.4097125 -0.78871875 3.38846875 0.5717875 4.49259375l-2.3861375 3.8756875c-0.03563125 -0.0035625 -0.07126875 -0.0057 -0.10833125 -0.0057 -0.76809375 0 -1.24815625 0.8314875 -0.86410625 1.49668125 0.1782375 0.3087125 0.50763125 0.49889375 0.86410625 0.49889375Zm9.12261875 -4.27623125c-0.46171875 -0.00038125 -0.9183125 0.0967625 -1.33988125 0.28508125L8.83625 4.83688125c0.4175125 -0.6447125 -0.01945625 -1.499625 -0.78655625 -1.53885 -0.76709375 -0.039225 -1.28898125 0.76666875 -0.93940625 1.4506 0.17080625 0.33416875 0.51466875 0.5442375 0.8899625 0.54366875 0.03620625 0.00001875 0.07238125 -0.002125 0.10833125 -0.0064125l2.59424375 4.217075c0.059925 0.09640625 0.15544375 0.16529375 0.2658375 0.1917125 0.1102625 0.02611875 0.22638125 0.00740625 0.32285625 -0.052025 1.5888625 -0.9773125 3.639875 0.13185625 3.691825 1.9965125 0.038 1.3640125 -1.05724375 2.4904125 -2.4217875 2.490675 -0.32918125 0.00001875 -0.534925 0.356375 -0.37031875 0.64145 0.0763875 0.1323 0.21755 0.2138 0.37031875 0.2138 2.52375 0 4.1010875 -2.7320375 2.83921875 -4.9176625 -0.5856375 -1.01435625 -1.66794375 -1.639225 -2.83921875 -1.639225Z" stroke-width="0.0625"></path>
</svg>